<svg width="1024" height="1024" version="1.1" xmlns="http://www.w3.org/2000/svg" desc="Created with imagetracer.js version 1.2.6" ><path fill="rgb(221,215,223)" stroke="rgb(221,215,223)" stroke-width="1" opacity="1" d="M 765.5 99 L 791 99.5 L 765.5 100 L 765.5 99 Z " /><path fill="rgb(221,215,223)" stroke="rgb(221,215,223)" stroke-width="1" opacity="1" d="M 754.5 100 L 759 100.5 L 754.5 101 L 754.5 100 Z " /><path fill="rgb(221,215,223)" stroke="rgb(221,215,223)" stroke-width="1" opacity="1" d="M 797.5 100 L 802 100.5 L 797.5 101 L 797.5 100 Z " /><path fill="rgb(221,215,223)" stroke="rgb(221,215,223)" stroke-width="1" opacity="1" d="M 747.5 101 L 751 101.5 L 747.5 102 L 747.5 101 Z " /><path fill="rgb(221,215,223)" stroke="rgb(221,215,223)" stroke-width="1" opacity="1" d="M 805.5 101 L 809 101.5 L 805.5 102 L 805.5 101 Z " /><path fill="rgb(221,215,223)" stroke="rgb(221,215,223)" stroke-width="1" opacity="1" d="M 741.5 102 L 744 102.5 L 741.5 103 L 741.5 102 Z " /><path fill="rgb(221,215,223)" stroke="rgb(221,215,223)" stroke-width="1" opacity="1" d="M 812.5 102 L 815 102.5 L 812.5 103 L 812.5 102 Z " /><path fill="rgb(221,215,223)" stroke="rgb(221,215,223)" stroke-width="1" opacity="1" d="M 736.5 103 L 739 103.5 L 736.5 104 L 736.5 103 Z " /><path fill="rgb(221,215,223)" stroke="rgb(221,215,223)" stroke-width="1" opacity="1" d="M 817.5 103 L 820 103.5 L 817.5 104 L 817.5 103 Z " /><path fill="rgb(221,215,223)" stroke="rgb(221,215,223)" stroke-width="1" opacity="1" d="M 681.5 124 L 680.5 126 L 681.5 124 Z " /><path fill="rgb(221,215,223)" stroke="rgb(221,215,223)" stroke-width="1" opacity="1" d="M 874.5 124 L 875.5 126 L 874.5 124 Z " /><path fill="rgb(221,215,223)" stroke="rgb(221,215,223)" stroke-width="1" opacity="1" d="M 671.5 130 L 670.5 132 L 671.5 130 Z " /><path fill="rgb(221,215,223)" stroke="rgb(221,215,223)" stroke-width="1" opacity="1" d="M 884.5 130 L 885.5 132 L 884.5 130 Z " /><path fill="rgb(221,215,223)" stroke="rgb(221,215,223)" stroke-width="1" opacity="1" d="M 668.5 132 L 667.5 134 L 668.5 132 Z " /><path fill="rgb(221,215,223)" stroke="rgb(221,215,223)" stroke-width="1" opacity="1" d="M 887.5 132 L 888.5 134 L 887.5 132 Z " /><path fill="rgb(221,215,223)" stroke="rgb(221,215,223)" stroke-width="1" opacity="1" d="M 665.5 134 L 664.5 136 L 665.5 134 Z " /><path fill="rgb(221,215,223)" stroke="rgb(221,215,223)" stroke-width="1" opacity="1" d="M 890.5 134 L 891.5 136 L 890.5 134 Z " /><path fill="rgb(221,215,223)" stroke="rgb(221,215,223)" stroke-width="1" opacity="1" d="M 661.5 137 L 660.5 139 L 661.5 137 Z " /><path fill="rgb(221,215,223)" stroke="rgb(221,215,223)" stroke-width="1" opacity="1" d="M 894.5 137 L 895.5 139 L 894.5 137 Z " /><path fill="rgb(221,215,223)" stroke="rgb(221,215,223)" stroke-width="1" opacity="1" d="M 657.5 140 L 655.5 143 L 657.5 140 Z " /><path fill="rgb(221,215,223)" stroke="rgb(221,215,223)" stroke-width="1" opacity="1" d="M 898.5 140 L 900.5 143 L 898.5 140 Z " /><path fill="rgb(221,215,223)" stroke="rgb(221,215,223)" stroke-width="1" opacity="1" d="M 652.5 144 L 649.5 148 L 652.5 144 Z " /><path fill="rgb(221,215,223)" stroke="rgb(221,215,223)" stroke-width="1" opacity="1" d="M 903.5 144 L 906.5 148 L 903.5 144 Z " /><path fill="rgb(221,215,223)" stroke="rgb(221,215,223)" stroke-width="1" opacity="1" d="M 645.5 150 L 632.5 164 L 645.5 150 Z " /><path fill="rgb(221,215,223)" stroke="rgb(221,215,223)" stroke-width="1" opacity="1" d="M 910.5 150 L 923.5 164 L 910.5 150 Z " /><path fill="rgb(221,215,223)" stroke="rgb(221,215,223)" stroke-width="1" opacity="1" d="M 845.5 164 L 848 165.5 L 846.5 165 L 845.5 164 Z " /><path fill="rgb(221,215,223)" stroke="rgb(221,215,223)" stroke-width="1" opacity="1" d="M 629.5 167 L 626.5 171 L 629.5 167 Z " /><path fill="rgb(221,215,223)" stroke="rgb(221,215,223)" stroke-width="1" opacity="1" d="M 851.5 167 L 855 169.5 L 853.5 169 L 851.5 167 Z " /><path fill="rgb(221,215,223)" stroke="rgb(221,215,223)" stroke-width="1" opacity="1" d="M 926.5 167 L 929.5 171 L 926.5 167 Z " /><path fill="rgb(221,215,223)" stroke="rgb(221,215,223)" stroke-width="1" opacity="1" d="M 856.5 170 L 862 174.5 L 859.5 173 L 856.5 170 Z " /><path fill="rgb(221,215,223)" stroke="rgb(221,215,223)" stroke-width="1" opacity="1" d="M 698.5 171 L 697.5 173 L 698.5 171 Z " /><path fill="rgb(221,215,223)" stroke="rgb(221,215,223)" stroke-width="1" opacity="1" d="M 624.5 173 L 622.5 176 L 624.5 173 Z " /><path fill="rgb(221,215,223)" stroke="rgb(221,215,223)" stroke-width="1" opacity="1" d="M 931.5 173 L 933.5 176 L 931.5 173 Z " /><path fill="rgb(221,215,223)" stroke="rgb(221,215,223)" stroke-width="1" opacity="1" d="M 692.5 175 L 691.5 177 L 692.5 175 Z " /><path fill="rgb(221,215,223)" stroke="rgb(221,215,223)" stroke-width="1" opacity="1" d="M 863.5 175 L 870 180.5 L 866.5 178 L 863.5 175 Z " /><path fill="rgb(221,215,223)" stroke="rgb(221,215,223)" stroke-width="1" opacity="1" d="M 620.5 178 L 619.5 180 L 620.5 178 Z " /><path fill="rgb(221,215,223)" stroke="rgb(221,215,223)" stroke-width="1" opacity="1" d="M 935.5 178 L 936.5 180 L 935.5 178 Z " /><path fill="rgb(221,215,223)" stroke="rgb(221,215,223)" stroke-width="1" opacity="1" d="M 687.5 179 L 685.5 182 L 687.5 179 Z " /><path fill="rgb(221,215,223)" stroke="rgb(221,215,223)" stroke-width="1" opacity="1" d="M 871.5 181 L 878.5 189 L 871.5 181 Z " /><path fill="rgb(221,215,223)" stroke="rgb(221,215,223)" stroke-width="1" opacity="1" d="M 617.5 182 L 616.5 184 L 617.5 182 Z " /><path fill="rgb(221,215,223)" stroke="rgb(221,215,223)" stroke-width="1" opacity="1" d="M 938.5 182 L 939.5 184 L 938.5 182 Z " /><path fill="rgb(221,215,223)" stroke="rgb(221,215,223)" stroke-width="1" opacity="1" d="M 615.5 185 L 614.5 187 L 615.5 185 Z " /><path fill="rgb(221,215,223)" stroke="rgb(221,215,223)" stroke-width="1" opacity="1" d="M 680.5 185 L 678.5 188 L 680.5 185 Z " /><path fill="rgb(221,215,223)" stroke="rgb(221,215,223)" stroke-width="1" opacity="1" d="M 940.5 185 L 941.5 187 L 940.5 185 Z " /><path fill="rgb(221,215,223)" stroke="rgb(221,215,223)" stroke-width="1" opacity="1" d="M 613.5 188 L 612.5 190 L 613.5 188 Z " /><path fill="rgb(221,215,223)" stroke="rgb(221,215,223)" stroke-width="1" opacity="1" d="M 942.5 188 L 943.5 190 L 942.5 188 Z " /><path fill="rgb(221,215,223)" stroke="rgb(221,215,223)" stroke-width="1" opacity="1" d="M 880.5 189 Q 895.9 202.6 906 221.5 L 904 220.5 L 897 208.5 L 880.5 189 Z " /><path fill="rgb(221,215,223)" stroke="rgb(221,215,223)" stroke-width="1" opacity="1" d="M 611.5 191 L 610.5 193 L 611.5 191 Z " /><path fill="rgb(221,215,223)" stroke="rgb(221,215,223)" stroke-width="1" opacity="1" d="M 944.5 191 L 945.5 193 L 944.5 191 Z " /><path fill="rgb(221,215,223)" stroke="rgb(221,215,223)" stroke-width="1" opacity="1" d="M 671.5 194 L 667.5 199 L 671.5 194 Z " /><path fill="rgb(221,215,223)" stroke="rgb(221,215,223)" stroke-width="1" opacity="1" d="M 317.5 196 L 357 196.5 L 317.5 197 L 317.5 196 Z " /><path fill="rgb(221,215,223)" stroke="rgb(221,215,223)" stroke-width="1" opacity="1" d="M 608.5 196 L 607.5 198 L 608.5 196 Z " /><path fill="rgb(221,215,223)" stroke="rgb(221,215,223)" stroke-width="1" opacity="1" d="M 947.5 196 L 948.5 198 L 947.5 196 Z " /><path fill="rgb(221,215,223)" stroke="rgb(221,215,223)" stroke-width="1" opacity="1" d="M 222.5 197 L 226 197.5 L 217 201 Q 218.1 203.7 215.5 203 L 211 209.5 L 210 216.5 L 211 221.5 L 210 222.5 L 210 501.5 L 211 502.5 L 211 803.5 L 218.5 813 L 224.5 816 L 378.5 816 L 388 808.5 L 391 800.5 L 391 475.5 L 392.5 474 L 394.5 474 L 399 478.5 L 407 489.5 L 436 520.5 L 436 522 Q 438.7 520.9 438 523.5 L 461 548.5 L 461 550 Q 463.7 548.9 463 551.5 L 468 558 Q 470.7 556.9 470 559.5 Q 485.1 573 496 589 Q 498.7 587.9 498 590.5 L 515 608.5 L 515 610 Q 517.7 608.9 517 611.5 L 531 626.5 L 531 628 Q 533.7 626.9 533 629.5 L 566 666.5 L 563 664.5 L 444 530.5 L 409 493.5 L 395.5 476 Q 389.4 474.2 392 481.5 L 393 482.5 L 393 499.5 L 392 500.5 L 392 802.5 Q 389.9 810.4 383.5 814 L 378.5 817 L 224.5 817 Q 216.4 814.1 212 807.5 L 210 803.5 L 210 546.5 L 209 543.5 L 210 540.5 L 210 531.5 L 209 530.5 L 210 526.5 L 209 525.5 L 209 211.5 Q 211.6 204.1 217.5 200 L 222.5 197 Z " /><path fill="rgb(221,215,223)" stroke="rgb(221,215,223)" stroke-width="1" opacity="1" d="M 358.5 197 Q 373.7 198.3 380 208.5 L 440 279.5 L 461 301.5 L 507 354.5 L 505.5 355 L 471.5 315 Q 469.3 315.8 470 313.5 L 438 278.5 L 424 260 Q 421.3 261.1 422 258.5 L 387 219.5 L 377 206 L 375 206 Q 376.1 203.3 373.5 204 L 368.5 200 L 358.5 198 L 358.5 197 Z " /><path fill="rgb(221,215,223)" stroke="rgb(221,215,223)" stroke-width="1" opacity="1" d="M 662.5 204 L 661.5 206 L 662.5 204 Z " /><path fill="rgb(221,215,223)" stroke="rgb(221,215,223)" stroke-width="1" opacity="1" d="M 952.5 205 L 955 208.5 L 953 207.5 L 952.5 205 Z " /><path fill="rgb(221,215,223)" stroke="rgb(221,215,223)" stroke-width="1" opacity="1" d="M 602.5 207 L 602 208.5 L 599.5 214 L 599 212.5 L 602.5 207 Z " /><path fill="rgb(221,215,223)" stroke="rgb(221,215,223)" stroke-width="1" opacity="1" d="M 658.5 209 L 657.5 211 L 658.5 209 Z " /><path fill="rgb(221,215,223)" stroke="rgb(221,215,223)" stroke-width="1" opacity="1" d="M 764.5 212 L 759.5 218 L 764.5 212 Z " /><path fill="rgb(221,215,223)" stroke="rgb(221,215,223)" stroke-width="1" opacity="1" d="M 801.5 217 L 802 368.5 L 801 368.5 L 801.5 217 Z " /><path fill="rgb(221,215,223)" stroke="rgb(221,215,223)" stroke-width="1" opacity="1" d="M 757.5 218 L 755.5 221 L 757.5 218 Z " /><path fill="rgb(221,215,223)" stroke="rgb(221,215,223)" stroke-width="1" opacity="1" d="M 753.5 221 L 749.5 226 L 753.5 221 Z " /><path fill="rgb(221,215,223)" stroke="rgb(221,215,223)" stroke-width="1" opacity="1" d="M 906.5 223 L 913 234.5 L 911 233.5 L 906.5 223 Z " /><path fill="rgb(221,215,223)" stroke="rgb(221,215,223)" stroke-width="1" opacity="1" d="M 747.5 226 L 744.5 230 L 739.5 234 L 743.5 229 L 747.5 226 Z " /><path fill="rgb(221,215,223)" stroke="rgb(221,215,223)" stroke-width="1" opacity="1" d="M 737.5 234 L 735.5 237 L 732.5 239 L 734.5 236 L 737.5 234 Z " /><path fill="rgb(221,215,223)" stroke="rgb(221,215,223)" stroke-width="1" opacity="1" d="M 730.5 239 L 729.5 241 L 730.5 239 Z " /><path fill="rgb(221,215,223)" stroke="rgb(221,215,223)" stroke-width="1" opacity="1" d="M 727.5 241 L 725.5 244 L 721.5 246 L 722.5 244 L 727.5 241 Z " /><path fill="rgb(221,215,223)" stroke="rgb(221,215,223)" stroke-width="1" opacity="1" d="M 917.5 247 L 920 253.5 L 919 253.5 L 917.5 247 Z " /><path fill="rgb(221,215,223)" stroke="rgb(221,215,223)" stroke-width="1" opacity="1" d="M 720.5 248 L 722.5 251 L 720.5 248 Z " /><path fill="rgb(221,215,223)" stroke="rgb(221,215,223)" stroke-width="1" opacity="1" d="M 761.5 253 L 754.5 261 L 739.5 271 L 737.5 271 L 735.5 268 L 739.5 270 L 755.5 259 L 761.5 253 Z " /><path fill="rgb(221,215,223)" stroke="rgb(221,215,223)" stroke-width="1" opacity="1" d="M 636.5 254 L 637 256.5 L 636 256.5 L 636.5 254 Z " /><path fill="rgb(221,215,223)" stroke="rgb(221,215,223)" stroke-width="1" opacity="1" d="M 724.5 254 L 725.5 256 L 724.5 254 Z " /><path fill="rgb(221,215,223)" stroke="rgb(221,215,223)" stroke-width="1" opacity="1" d="M 920.5 255 L 921 258.5 L 920 258.5 L 920.5 255 Z " /><path fill="rgb(221,215,223)" stroke="rgb(221,215,223)" stroke-width="1" opacity="1" d="M 726.5 257 L 728.5 260 L 726.5 257 Z " /><path fill="rgb(221,215,223)" stroke="rgb(221,215,223)" stroke-width="1" opacity="1" d="M 729.5 261 L 734.5 267 L 729.5 261 Z " /><path fill="rgb(221,215,223)" stroke="rgb(221,215,223)" stroke-width="1" opacity="1" d="M 583.5 262 L 584 264.5 L 583 264.5 L 583.5 262 Z " /><path fill="rgb(221,215,223)" stroke="rgb(221,215,223)" stroke-width="1" opacity="1" d="M 634.5 262 L 635 264.5 L 634 264.5 L 634.5 262 Z " /><path fill="rgb(221,215,223)" stroke="rgb(221,215,223)" stroke-width="1" opacity="1" d="M 972.5 262 L 973 264.5 L 972 264.5 L 972.5 262 Z " /><path fill="rgb(221,215,223)" stroke="rgb(221,215,223)" stroke-width="1" opacity="1" d="M 582.5 267 L 583 270.5 L 582 270.5 L 582.5 267 Z " /><path fill="rgb(221,215,223)" stroke="rgb(221,215,223)" stroke-width="1" opacity="1" d="M 923.5 267 L 924 271.5 L 923 271.5 L 923.5 267 Z " /><path fill="rgb(221,215,223)" stroke="rgb(221,215,223)" stroke-width="1" opacity="1" d="M 973.5 268 L 974 270.5 L 973 270.5 L 973.5 268 Z " /><path fill="rgb(221,215,223)" stroke="rgb(221,215,223)" stroke-width="1" opacity="1" d="M 632.5 272 L 633 276.5 L 632 276.5 L 632.5 272 Z " /><path fill="rgb(221,215,223)" stroke="rgb(221,215,223)" stroke-width="1" opacity="1" d="M 581.5 275 L 582 279.5 L 581 279.5 L 581.5 275 Z " /><path fill="rgb(221,215,223)" stroke="rgb(221,215,223)" stroke-width="1" opacity="1" d="M 974.5 275 L 975 279.5 L 974 279.5 L 974.5 275 Z " /><path fill="rgb(221,215,223)" stroke="rgb(221,215,223)" stroke-width="1" opacity="1" d="M 924.5 276 L 925 278.5 L 924 278.5 L 924.5 276 Z " /><path fill="rgb(221,215,223)" stroke="rgb(221,215,223)" stroke-width="1" opacity="1" d="M 631.5 281 L 632 283.5 L 631 283.5 L 631.5 281 Z " /><path fill="rgb(221,215,223)" stroke="rgb(221,215,223)" stroke-width="1" opacity="1" d="M 925.5 282 L 926 290.5 L 925 290.5 L 925.5 282 Z " /><path fill="rgb(221,215,223)" stroke="rgb(221,215,223)" stroke-width="1" opacity="1" d="M 580.5 286 L 581 310.5 L 580 310.5 L 580.5 286 Z " /><path fill="rgb(221,215,223)" stroke="rgb(221,215,223)" stroke-width="1" opacity="1" d="M 630.5 286 L 631 294.5 L 630 294.5 L 630.5 286 Z " /><path fill="rgb(221,215,223)" stroke="rgb(221,215,223)" stroke-width="1" opacity="1" d="M 975.5 286 L 976 310.5 L 975 310.5 L 975.5 286 Z " /><path fill="rgb(221,215,223)" stroke="rgb(221,215,223)" stroke-width="1" opacity="1" d="M 630.5 308 L 631 312.5 L 630 312.5 L 630.5 308 Z " /><path fill="rgb(221,215,223)" stroke="rgb(221,215,223)" stroke-width="1" opacity="1" d="M 925.5 309 L 926 313.5 L 925 313.5 L 925.5 309 Z " /><path fill="rgb(221,215,223)" stroke="rgb(221,215,223)" stroke-width="1" opacity="1" d="M 631.5 315 L 632 317.5 L 631 317.5 L 631.5 315 Z " /><path fill="rgb(221,215,223)" stroke="rgb(221,215,223)" stroke-width="1" opacity="1" d="M 924.5 316 L 925 319.5 L 924 319.5 L 924.5 316 Z " /><path fill="rgb(221,215,223)" stroke="rgb(221,215,223)" stroke-width="1" opacity="1" d="M 581.5 317 L 582 321.5 L 581 321.5 L 581.5 317 Z " /><path fill="rgb(221,215,223)" stroke="rgb(221,215,223)" stroke-width="1" opacity="1" d="M 974.5 317 L 975 321.5 L 974 321.5 L 974.5 317 Z " /><path fill="rgb(221,215,223)" stroke="rgb(221,215,223)" stroke-width="1" opacity="1" d="M 632.5 320 L 633 325.5 L 632 325.5 L 632.5 320 Z " /><path fill="rgb(221,215,223)" stroke="rgb(221,215,223)" stroke-width="1" opacity="1" d="M 923.5 324 L 924 327.5 L 923 327.5 L 923.5 324 Z " /><path fill="rgb(221,215,223)" stroke="rgb(221,215,223)" stroke-width="1" opacity="1" d="M 582.5 326 L 583 329.5 L 582 329.5 L 582.5 326 Z " /><path fill="rgb(221,215,223)" stroke="rgb(221,215,223)" stroke-width="1" opacity="1" d="M 973.5 326 L 974 328.5 L 973 328.5 L 973.5 326 Z " /><path fill="rgb(221,215,223)" stroke="rgb(221,215,223)" stroke-width="1" opacity="1" d="M 633.5 330 L 634 332.5 L 633 332.5 L 633.5 330 Z " /><path fill="rgb(221,215,223)" stroke="rgb(221,215,223)" stroke-width="1" opacity="1" d="M 922.5 331 L 923 333.5 L 922 333.5 L 922.5 331 Z " /><path fill="rgb(221,215,223)" stroke="rgb(221,215,223)" stroke-width="1" opacity="1" d="M 583.5 332 L 584 334.5 L 583 334.5 L 583.5 332 Z " /><path fill="rgb(221,215,223)" stroke="rgb(221,215,223)" stroke-width="1" opacity="1" d="M 972.5 332 L 973 334.5 L 972 334.5 L 972.5 332 Z " /><path fill="rgb(221,215,223)" stroke="rgb(221,215,223)" stroke-width="1" opacity="1" d="M 918.5 346 L 919 348.5 L 918 348.5 L 918.5 346 Z " /><path fill="rgb(221,215,223)" stroke="rgb(221,215,223)" stroke-width="1" opacity="1" d="M 917.5 350 L 918 351.5 L 916.5 354 L 916 352.5 L 917.5 350 Z " /><path fill="rgb(221,215,223)" stroke="rgb(221,215,223)" stroke-width="1" opacity="1" d="M 507.5 356 L 576 435.5 L 574 434.5 L 566.5 425 Q 564.3 425.8 565 423.5 L 536 389 Q 533.3 390.1 534 387.5 L 507.5 356 Z " /><path fill="rgb(221,215,223)" stroke="rgb(221,215,223)" stroke-width="1" opacity="1" d="M 909.5 368 L 909 369.5 Q 896.2 395.2 875.5 413 L 889 398.5 Q 900.8 384.8 909.5 368 Z " /><path fill="rgb(221,215,223)" stroke="rgb(221,215,223)" stroke-width="1" opacity="1" d="M 801.5 376 L 802 378.5 L 800.5 380 L 784.5 380 L 784.5 379 L 800.5 379 L 801.5 376 Z " /><path fill="rgb(221,215,223)" stroke="rgb(221,215,223)" stroke-width="1" opacity="1" d="M 765.5 378 L 766.5 380 L 765.5 378 Z " /><path fill="rgb(221,215,223)" stroke="rgb(221,215,223)" stroke-width="1" opacity="1" d="M 768.5 379 L 775 379.5 L 768.5 380 L 768.5 379 Z " /><path fill="rgb(221,215,223)" stroke="rgb(221,215,223)" stroke-width="1" opacity="1" d="M 654.5 381 L 655.5 383 L 654.5 381 Z " /><path fill="rgb(221,215,223)" stroke="rgb(221,215,223)" stroke-width="1" opacity="1" d="M 599.5 383 L 603 389.5 L 601 388.5 L 599.5 383 Z " /><path fill="rgb(221,215,223)" stroke="rgb(221,215,223)" stroke-width="1" opacity="1" d="M 656.5 384 L 658.5 387 L 656.5 384 Z " /><path fill="rgb(221,215,223)" stroke="rgb(221,215,223)" stroke-width="1" opacity="1" d="M 954.5 388 L 954 389.5 L 952.5 392 L 953 390.5 L 954.5 388 Z " /><path fill="rgb(221,215,223)" stroke="rgb(221,215,223)" stroke-width="1" opacity="1" d="M 660.5 389 L 662.5 392 L 660.5 389 Z " /><path fill="rgb(221,215,223)" stroke="rgb(221,215,223)" stroke-width="1" opacity="1" d="M 664.5 394 L 665.5 396 L 664.5 394 Z " /><path fill="rgb(221,215,223)" stroke="rgb(221,215,223)" stroke-width="1" opacity="1" d="M 607.5 399 L 608.5 401 L 607.5 399 Z " /><path fill="rgb(221,215,223)" stroke="rgb(221,215,223)" stroke-width="1" opacity="1" d="M 668.5 399 L 672.5 404 L 668.5 399 Z " /><path fill="rgb(221,215,223)" stroke="rgb(221,215,223)" stroke-width="1" opacity="1" d="M 948.5 399 L 947.5 401 L 948.5 399 Z " /><path fill="rgb(221,215,223)" stroke="rgb(221,215,223)" stroke-width="1" opacity="1" d="M 610.5 404 L 611.5 406 L 610.5 404 Z " /><path fill="rgb(221,215,223)" stroke="rgb(221,215,223)" stroke-width="1" opacity="1" d="M 945.5 404 L 944.5 406 L 945.5 404 Z " /><path fill="rgb(221,215,223)" stroke="rgb(221,215,223)" stroke-width="1" opacity="1" d="M 612.5 407 L 613.5 409 L 612.5 407 Z " /><path fill="rgb(221,215,223)" stroke="rgb(221,215,223)" stroke-width="1" opacity="1" d="M 943.5 407 L 942.5 409 L 943.5 407 Z " /><path fill="rgb(221,215,223)" stroke="rgb(221,215,223)" stroke-width="1" opacity="1" d="M 678.5 409 L 682.5 414 L 678.5 409 Z " /><path fill="rgb(221,215,223)" stroke="rgb(221,215,223)" stroke-width="1" opacity="1" d="M 614.5 410 L 615.5 412 L 614.5 410 Z " /><path fill="rgb(221,215,223)" stroke="rgb(221,215,223)" stroke-width="1" opacity="1" d="M 941.5 410 L 940.5 412 L 941.5 410 Z " /><path fill="rgb(221,215,223)" stroke="rgb(221,215,223)" stroke-width="1" opacity="1" d="M 616.5 413 L 617.5 415 L 616.5 413 Z " /><path fill="rgb(221,215,223)" stroke="rgb(221,215,223)" stroke-width="1" opacity="1" d="M 873.5 413 L 869.5 418 L 873.5 413 Z " /><path fill="rgb(221,215,223)" stroke="rgb(221,215,223)" stroke-width="1" opacity="1" d="M 939.5 413 L 938.5 415 L 939.5 413 Z " /><path fill="rgb(221,215,223)" stroke="rgb(221,215,223)" stroke-width="1" opacity="1" d="M 684.5 414 L 686.5 417 L 684.5 414 Z " /><path fill="rgb(221,215,223)" stroke="rgb(221,215,223)" stroke-width="1" opacity="1" d="M 619.5 417 L 620.5 419 L 619.5 417 Z " /><path fill="rgb(221,215,223)" stroke="rgb(221,215,223)" stroke-width="1" opacity="1" d="M 936.5 417 L 935.5 419 L 936.5 417 Z " /><path fill="rgb(221,215,223)" stroke="rgb(221,215,223)" stroke-width="1" opacity="1" d="M 867.5 418 L 864.5 422 L 867.5 418 Z " /><path fill="rgb(221,215,223)" stroke="rgb(221,215,223)" stroke-width="1" opacity="1" d="M 690.5 419 L 691.5 421 L 690.5 419 Z " /><path fill="rgb(221,215,223)" stroke="rgb(221,215,223)" stroke-width="1" opacity="1" d="M 622.5 421 L 624.5 424 L 622.5 421 Z " /><path fill="rgb(221,215,223)" stroke="rgb(221,215,223)" stroke-width="1" opacity="1" d="M 933.5 421 L 931.5 424 L 933.5 421 Z " /><path fill="rgb(221,215,223)" stroke="rgb(221,215,223)" stroke-width="1" opacity="1" d="M 694.5 422 L 695.5 424 L 694.5 422 Z " /><path fill="rgb(221,215,223)" stroke="rgb(221,215,223)" stroke-width="1" opacity="1" d="M 862.5 422 L 861.5 424 L 862.5 422 Z " /><path fill="rgb(221,215,223)" stroke="rgb(221,215,223)" stroke-width="1" opacity="1" d="M 859.5 424 L 858.5 426 L 859.5 424 Z " /><path fill="rgb(221,215,223)" stroke="rgb(221,215,223)" stroke-width="1" opacity="1" d="M 626.5 426 L 629.5 430 L 626.5 426 Z " /><path fill="rgb(221,215,223)" stroke="rgb(221,215,223)" stroke-width="1" opacity="1" d="M 929.5 426 L 926.5 430 L 929.5 426 Z " /><path fill="rgb(221,215,223)" stroke="rgb(221,215,223)" stroke-width="1" opacity="1" d="M 854.5 427 L 853.5 429 L 854.5 427 Z " /><path fill="rgb(221,215,223)" stroke="rgb(221,215,223)" stroke-width="1" opacity="1" d="M 849.5 430 L 848.5 432 L 849.5 430 Z " /><path fill="rgb(221,215,223)" stroke="rgb(221,215,223)" stroke-width="1" opacity="1" d="M 632.5 433 L 645.5 447 L 632.5 433 Z " /><path fill="rgb(221,215,223)" stroke="rgb(221,215,223)" stroke-width="1" opacity="1" d="M 923.5 433 L 910.5 447 L 923.5 433 Z " /><path fill="rgb(221,215,223)" stroke="rgb(221,215,223)" stroke-width="1" opacity="1" d="M 718.5 435 L 721 436.5 L 719.5 437 L 718.5 435 Z " /><path fill="rgb(221,215,223)" stroke="rgb(221,215,223)" stroke-width="1" opacity="1" d="M 577.5 437 L 585 445.5 L 583 444.5 L 577.5 437 Z " /><path fill="rgb(221,215,223)" stroke="rgb(221,215,223)" stroke-width="1" opacity="1" d="M 818.5 442 L 821 442.5 L 818.5 443 L 818.5 442 Z " /><path fill="rgb(221,215,223)" stroke="rgb(221,215,223)" stroke-width="1" opacity="1" d="M 757.5 446 L 762 446.5 L 757.5 447 L 757.5 446 Z " /><path fill="rgb(221,215,223)" stroke="rgb(221,215,223)" stroke-width="1" opacity="1" d="M 586.5 447 L 639 505.5 L 628 495.5 L 626 492.5 L 596 459.5 L 596 458 Q 593.3 459.1 594 456.5 Q 588 452.5 586.5 447 Z " /><path fill="rgb(221,215,223)" stroke="rgb(221,215,223)" stroke-width="1" opacity="1" d="M 766.5 447 L 774 447.5 L 766.5 448 L 766.5 447 Z " /><path fill="rgb(221,215,223)" stroke="rgb(221,215,223)" stroke-width="1" opacity="1" d="M 786.5 447 L 790 447.5 L 786.5 448 L 786.5 447 Z " /><path fill="rgb(221,215,223)" stroke="rgb(221,215,223)" stroke-width="1" opacity="1" d="M 649.5 449 L 652.5 453 L 649.5 449 Z " /><path fill="rgb(221,215,223)" stroke="rgb(221,215,223)" stroke-width="1" opacity="1" d="M 906.5 449 L 903.5 453 L 906.5 449 Z " /><path fill="rgb(221,215,223)" stroke="rgb(221,215,223)" stroke-width="1" opacity="1" d="M 655.5 454 L 657.5 457 L 655.5 454 Z " /><path fill="rgb(221,215,223)" stroke="rgb(221,215,223)" stroke-width="1" opacity="1" d="M 900.5 454 L 898.5 457 L 900.5 454 Z " /><path fill="rgb(221,215,223)" stroke="rgb(221,215,223)" stroke-width="1" opacity="1" d="M 660.5 458 L 661.5 460 L 660.5 458 Z " /><path fill="rgb(221,215,223)" stroke="rgb(221,215,223)" stroke-width="1" opacity="1" d="M 895.5 458 L 894.5 460 L 895.5 458 Z " /><path fill="rgb(221,215,223)" stroke="rgb(221,215,223)" stroke-width="1" opacity="1" d="M 666.5 463 L 667 529.5 Q 666 532 661.5 531 L 640 507.5 L 646 512.5 L 661.5 530 Q 665.9 531.5 665 528.5 L 666 527.5 L 666.5 463 Z " /><path fill="rgb(221,215,223)" stroke="rgb(221,215,223)" stroke-width="1" opacity="1" d="M 888.5 463 L 887.5 465 L 888.5 463 Z " /><path fill="rgb(221,215,223)" stroke="rgb(221,215,223)" stroke-width="1" opacity="1" d="M 885.5 465 L 884.5 467 L 885.5 465 Z " /><path fill="rgb(221,215,223)" stroke="rgb(221,215,223)" stroke-width="1" opacity="1" d="M 875.5 471 L 874.5 473 L 875.5 471 Z " /><path fill="rgb(221,215,223)" stroke="rgb(221,215,223)" stroke-width="1" opacity="1" d="M 849.5 484 L 849 485.5 L 849 803.5 Q 846.8 810.3 841.5 814 L 836.5 817 L 828.5 818 L 827.5 817 L 795.5 817 L 794.5 818 L 767.5 818 L 766.5 817 L 753.5 817 L 752.5 818 L 713.5 818 L 702 815.5 L 704.5 815 L 705.5 816 L 836.5 816 L 845 809.5 L 848 802.5 L 848 485.5 L 849.5 484 Z " /><path fill="rgb(221,215,223)" stroke="rgb(221,215,223)" stroke-width="1" opacity="1" d="M 567.5 668 L 589 691.5 L 589 693 Q 591.7 691.9 591 694.5 L 597.5 702 L 567 669.5 L 567.5 668 Z " /><path fill="rgb(221,215,223)" stroke="rgb(221,215,223)" stroke-width="1" opacity="1" d="M 599.5 703 L 627.5 736 Q 629.8 735.3 629 737.5 Q 659.8 768.5 686 803 L 689 804.5 Q 688.3 806.8 690.5 806 Q 693.9 812.2 701 814.5 L 699.5 815 L 682 799.5 L 655 766.5 L 603 709.5 L 599 704.5 L 599.5 703 Z " /><path fill="rgb(243,88,64)" stroke="rgb(243,88,64)" stroke-width="1" opacity="1" d="M 756.5 150 L 803.5 150 Q 807.8 153.2 815.5 153 L 818.5 155 L 822.5 155 L 838.5 161 L 855.5 170 Q 871.8 180.7 885 194.5 Q 903.7 213.8 915 240.5 L 923 265.5 L 923 271.5 L 925 279.5 L 925 290.5 L 926 291.5 L 926 308.5 L 924 316.5 L 923 330.5 L 918 349.5 L 913 361.5 Q 898.4 391.9 874.5 413 L 857.5 426 L 829.5 440 L 801.5 447 L 774.5 448 L 773.5 447 L 752.5 446 L 728.5 440 L 696.5 424 L 673 404.5 L 656 383.5 L 643 359.5 L 633 329.5 L 633 320.5 L 630 306.5 L 631 304.5 L 630 300.5 L 631 298.5 L 630 295.5 L 631 294.5 L 631 284.5 L 633 276.5 L 633 269.5 L 637 253.5 L 644 234.5 L 659 208.5 L 677.5 188 Q 693.7 172.2 715.5 162 L 733.5 155 L 741.5 154 L 745.5 152 L 751.5 152 L 756.5 150 Z M 765 212 Q 744 231 720 247 Q 727 261 738 271 Q 753 265 763 253 L 765 254 L 765 379 L 767 380 L 801 380 L 802 379 L 801 376 Q 800 370 802 369 L 802 215 L 800 212 L 765 212 Z " /><path fill="rgb(243,88,64)" stroke="rgb(243,88,64)" stroke-width="1" opacity="1" d="M 304.5 196 L 317 196.5 L 304.5 197 L 304.5 196 Z " /><path fill="rgb(243,88,64)" stroke="rgb(243,88,64)" stroke-width="1" opacity="1" d="M 209.5 526 L 210 529.5 L 209 529.5 L 209.5 526 Z " /><path fill="rgb(243,88,64)" stroke="rgb(243,88,64)" stroke-width="1" opacity="1" d="M 209.5 531 L 210 540.5 L 209 540.5 L 209.5 531 Z " /><path fill="rgb(243,88,64)" stroke="rgb(243,88,64)" stroke-width="1" opacity="1" d="M 209.5 546 L 210 560.5 L 209 560.5 L 209.5 546 Z " /><path fill="rgb(243,88,64)" stroke="rgb(243,88,64)" stroke-width="1" opacity="1" d="M 209.5 593 L 210 604.5 L 209 604.5 L 209.5 593 Z " /><path fill="rgb(243,88,64)" stroke="rgb(243,88,64)" stroke-width="1" opacity="1" d="M 753.5 817 L 767 817.5 L 753.5 818 L 753.5 817 Z " /><path fill="rgb(243,88,64)" stroke="rgb(243,88,64)" stroke-width="1" opacity="1" d="M 795.5 817 L 801 817.5 L 795.5 818 L 795.5 817 Z " /><path fill="rgb(254,255,254)" stroke="rgb(254,255,254)" stroke-width="1" opacity="1" d="M 663.5 136 L 662.5 138 L 663.5 136 Z " /><path fill="rgb(254,255,254)" stroke="rgb(254,255,254)" stroke-width="1" opacity="1" d="M 892.5 136 L 893.5 138 L 892.5 136 Z " /><path fill="rgb(254,255,254)" stroke="rgb(254,255,254)" stroke-width="1" opacity="1" d="M 659.5 139 L 658.5 141 L 659.5 139 Z " /><path fill="rgb(254,255,254)" stroke="rgb(254,255,254)" stroke-width="1" opacity="1" d="M 896.5 139 L 897.5 141 L 896.5 139 Z " /><path fill="rgb(254,255,254)" stroke="rgb(254,255,254)" stroke-width="1" opacity="1" d="M 654.5 143 L 653.5 145 L 654.5 143 Z " /><path fill="rgb(254,255,254)" stroke="rgb(254,255,254)" stroke-width="1" opacity="1" d="M 901.5 143 L 902.5 145 L 901.5 143 Z " /><path fill="rgb(254,255,254)" stroke="rgb(254,255,254)" stroke-width="1" opacity="1" d="M 648.5 148 L 646.5 151 L 648.5 148 Z " /><path fill="rgb(254,255,254)" stroke="rgb(254,255,254)" stroke-width="1" opacity="1" d="M 907.5 148 L 909.5 151 L 907.5 148 Z " /><path fill="rgb(254,255,254)" stroke="rgb(254,255,254)" stroke-width="1" opacity="1" d="M 765.5 149 L 795 149.5 L 765.5 150 L 765.5 149 Z " /><path fill="rgb(254,255,254)" stroke="rgb(254,255,254)" stroke-width="1" opacity="1" d="M 813.5 152 L 816 152.5 L 813.5 153 L 813.5 152 Z " /><path fill="rgb(254,255,254)" stroke="rgb(254,255,254)" stroke-width="1" opacity="1" d="M 819.5 154 L 822 154.5 L 819.5 155 L 819.5 154 Z " /><path fill="rgb(254,255,254)" stroke="rgb(254,255,254)" stroke-width="1" opacity="1" d="M 842.5 162 L 845 163.5 L 843.5 163 L 842.5 162 Z " /><path fill="rgb(254,255,254)" stroke="rgb(254,255,254)" stroke-width="1" opacity="1" d="M 632.5 164 L 630.5 167 L 632.5 164 Z " /><path fill="rgb(254,255,254)" stroke="rgb(254,255,254)" stroke-width="1" opacity="1" d="M 923.5 164 L 925.5 167 L 923.5 164 Z " /><path fill="rgb(254,255,254)" stroke="rgb(254,255,254)" stroke-width="1" opacity="1" d="M 681.5 183 L 679.5 186 L 681.5 183 Z " /><path fill="rgb(254,255,254)" stroke="rgb(254,255,254)" stroke-width="1" opacity="1" d="M 878.5 187 L 881 188.5 L 879.5 189 L 878.5 187 Z " /><path fill="rgb(254,255,254)" stroke="rgb(254,255,254)" stroke-width="1" opacity="1" d="M 886.5 195 L 889 196.5 L 887.5 197 L 886.5 195 Z " /><path fill="rgb(254,255,254)" stroke="rgb(254,255,254)" stroke-width="1" opacity="1" d="M 226.5 197 L 312 197.5 L 306.5 199 L 222.5 199 L 220.5 200 L 220.5 199 L 226.5 197 Z " /><path fill="rgb(254,255,254)" stroke="rgb(254,255,254)" stroke-width="1" opacity="1" d="M 357.5 197 L 362 198.5 L 357 199 L 357.5 197 Z " /><path fill="rgb(254,255,254)" stroke="rgb(254,255,254)" stroke-width="1" opacity="1" d="M 215.5 203 L 215 204.5 L 214.5 206 L 214 204.5 L 215.5 203 Z " /><path fill="rgb(254,255,254)" stroke="rgb(254,255,254)" stroke-width="1" opacity="1" d="M 212.5 207 L 213 208.5 L 211 209.5 L 212.5 207 Z " /><path fill="rgb(254,255,254)" stroke="rgb(254,255,254)" stroke-width="1" opacity="1" d="M 765.5 212 L 760.5 218 L 765.5 212 Z " /><path fill="rgb(254,255,254)" stroke="rgb(254,255,254)" stroke-width="1" opacity="1" d="M 210.5 214 L 212 218.5 L 211 218.5 L 210.5 214 Z " /><path fill="rgb(254,255,254)" stroke="rgb(254,255,254)" stroke-width="1" opacity="1" d="M 758.5 218 L 756.5 221 L 758.5 218 Z " /><path fill="rgb(254,255,254)" stroke="rgb(254,255,254)" stroke-width="1" opacity="1" d="M 754.5 221 L 750.5 226 L 754.5 221 Z " /><path fill="rgb(254,255,254)" stroke="rgb(254,255,254)" stroke-width="1" opacity="1" d="M 210.5 222 L 211 287.5 L 212 288.5 L 212 299.5 L 211 301.5 L 211 303.5 L 212 306.5 L 211 307.5 L 211 361.5 L 212 362.5 L 212 400.5 Q 209.3 402.2 211 408.5 L 212 409.5 L 212 419.5 L 211 420.5 L 211 454.5 Q 213.5 456 212 461.5 L 211 462.5 L 211 473.5 L 212 474.5 L 212 484.5 L 211 485.5 L 210.5 502 L 210.5 222 Z " /><path fill="rgb(254,255,254)" stroke="rgb(254,255,254)" stroke-width="1" opacity="1" d="M 390.5 223 L 391.5 225 L 390.5 223 Z " /><path fill="rgb(254,255,254)" stroke="rgb(254,255,254)" stroke-width="1" opacity="1" d="M 748.5 226 L 745.5 230 L 748.5 226 Z " /><path fill="rgb(254,255,254)" stroke="rgb(254,255,254)" stroke-width="1" opacity="1" d="M 396.5 230 L 397.5 232 L 396.5 230 Z " /><path fill="rgb(254,255,254)" stroke="rgb(254,255,254)" stroke-width="1" opacity="1" d="M 743.5 230 L 740.5 234 L 743.5 230 Z " /><path fill="rgb(254,255,254)" stroke="rgb(254,255,254)" stroke-width="1" opacity="1" d="M 399.5 233 L 402.5 237 Q 400.3 237.8 401 235.5 L 399.5 233 Z " /><path fill="rgb(254,255,254)" stroke="rgb(254,255,254)" stroke-width="1" opacity="1" d="M 738.5 234 L 736.5 237 L 738.5 234 Z " /><path fill="rgb(254,255,254)" stroke="rgb(254,255,254)" stroke-width="1" opacity="1" d="M 734.5 237 L 733.5 239 L 734.5 237 Z " /><path fill="rgb(254,255,254)" stroke="rgb(254,255,254)" stroke-width="1" opacity="1" d="M 404.5 239 L 408.5 244 L 404 241 L 404.5 239 Z " /><path fill="rgb(254,255,254)" stroke="rgb(254,255,254)" stroke-width="1" opacity="1" d="M 731.5 239 L 730.5 241 L 731.5 239 Z " /><path fill="rgb(254,255,254)" stroke="rgb(254,255,254)" stroke-width="1" opacity="1" d="M 728.5 241 L 726.5 244 L 728.5 241 Z " /><path fill="rgb(254,255,254)" stroke="rgb(254,255,254)" stroke-width="1" opacity="1" d="M 410.5 246 L 413.5 250 L 410.5 246 Z " /><path fill="rgb(254,255,254)" stroke="rgb(254,255,254)" stroke-width="1" opacity="1" d="M 720.5 246 Q 727.7 259.3 738 269.5 L 735 267.5 L 720 247.5 L 720.5 246 Z " /><path fill="rgb(254,255,254)" stroke="rgb(254,255,254)" stroke-width="1" opacity="1" d="M 764.5 253 L 766 254.5 L 766 377.5 L 768 379.5 L 765 377.5 L 765 254.5 L 764.5 253 Z " /><path fill="rgb(254,255,254)" stroke="rgb(254,255,254)" stroke-width="1" opacity="1" d="M 417.5 254 L 421.5 259 L 417.5 254 Z " /><path fill="rgb(254,255,254)" stroke="rgb(254,255,254)" stroke-width="1" opacity="1" d="M 425.5 263 L 427.5 266 Q 425.3 266.8 426 264.5 L 425.5 263 Z " /><path fill="rgb(254,255,254)" stroke="rgb(254,255,254)" stroke-width="1" opacity="1" d="M 429.5 268 L 431.5 271 L 429.5 268 Z " /><path fill="rgb(254,255,254)" stroke="rgb(254,255,254)" stroke-width="1" opacity="1" d="M 924.5 271 L 925 275.5 L 924 275.5 L 924.5 271 Z " /><path fill="rgb(254,255,254)" stroke="rgb(254,255,254)" stroke-width="1" opacity="1" d="M 435.5 275 L 437.5 278 L 435.5 275 Z " /><path fill="rgb(254,255,254)" stroke="rgb(254,255,254)" stroke-width="1" opacity="1" d="M 925.5 279 L 926 281.5 L 925 281.5 L 925.5 279 Z " /><path fill="rgb(254,255,254)" stroke="rgb(254,255,254)" stroke-width="1" opacity="1" d="M 441.5 282 L 442.5 284 L 441.5 282 Z " /><path fill="rgb(254,255,254)" stroke="rgb(254,255,254)" stroke-width="1" opacity="1" d="M 447.5 289 L 448.5 291 L 447.5 289 Z " /><path fill="rgb(254,255,254)" stroke="rgb(254,255,254)" stroke-width="1" opacity="1" d="M 460.5 303 L 461.5 305 L 460.5 303 Z " /><path fill="rgb(254,255,254)" stroke="rgb(254,255,254)" stroke-width="1" opacity="1" d="M 466.5 310 L 467.5 312 L 466.5 310 Z " /><path fill="rgb(254,255,254)" stroke="rgb(254,255,254)" stroke-width="1" opacity="1" d="M 471.5 315 L 474 318.5 L 472 317.5 L 471.5 315 Z " /><path fill="rgb(254,255,254)" stroke="rgb(254,255,254)" stroke-width="1" opacity="1" d="M 924.5 320 L 925 323.5 L 924 323.5 L 924.5 320 Z " /><path fill="rgb(254,255,254)" stroke="rgb(254,255,254)" stroke-width="1" opacity="1" d="M 476.5 321 L 481 326.5 L 478 324.5 L 476.5 321 Z " /><path fill="rgb(254,255,254)" stroke="rgb(254,255,254)" stroke-width="1" opacity="1" d="M 482.5 328 L 485 331.5 L 484 331.5 L 482.5 328 Z " /><path fill="rgb(254,255,254)" stroke="rgb(254,255,254)" stroke-width="1" opacity="1" d="M 923.5 328 L 924 330.5 L 923 330.5 L 923.5 328 Z " /><path fill="rgb(254,255,254)" stroke="rgb(254,255,254)" stroke-width="1" opacity="1" d="M 488.5 335 L 489.5 337 L 488.5 335 Z " /><path fill="rgb(254,255,254)" stroke="rgb(254,255,254)" stroke-width="1" opacity="1" d="M 493.5 341 L 497.5 346 Q 495.3 346.8 496 344.5 L 493.5 341 Z " /><path fill="rgb(254,255,254)" stroke="rgb(254,255,254)" stroke-width="1" opacity="1" d="M 499.5 348 L 503.5 353 Q 501.3 353.8 502 351.5 L 499.5 348 Z " /><path fill="rgb(254,255,254)" stroke="rgb(254,255,254)" stroke-width="1" opacity="1" d="M 509.5 359 L 512.5 363 L 509.5 359 Z " /><path fill="rgb(254,255,254)" stroke="rgb(254,255,254)" stroke-width="1" opacity="1" d="M 515.5 366 L 517.5 369 L 515.5 366 Z " /><path fill="rgb(254,255,254)" stroke="rgb(254,255,254)" stroke-width="1" opacity="1" d="M 521.5 373 L 522.5 375 L 521.5 373 Z " /><path fill="rgb(254,255,254)" stroke="rgb(254,255,254)" stroke-width="1" opacity="1" d="M 526.5 379 L 528 381.5 L 526 380.5 L 526.5 379 Z " /><path fill="rgb(254,255,254)" stroke="rgb(254,255,254)" stroke-width="1" opacity="1" d="M 536.5 391 L 537.5 393 L 536.5 391 Z " /><path fill="rgb(254,255,254)" stroke="rgb(254,255,254)" stroke-width="1" opacity="1" d="M 539.5 394 L 540.5 396 L 539.5 394 Z " /><path fill="rgb(254,255,254)" stroke="rgb(254,255,254)" stroke-width="1" opacity="1" d="M 545.5 401 L 546.5 403 L 545.5 401 Z " /><path fill="rgb(254,255,254)" stroke="rgb(254,255,254)" stroke-width="1" opacity="1" d="M 551.5 408 L 553.5 411 L 551.5 408 Z " /><path fill="rgb(254,255,254)" stroke="rgb(254,255,254)" stroke-width="1" opacity="1" d="M 556.5 414 L 559.5 418 L 556.5 414 Z " /><path fill="rgb(254,255,254)" stroke="rgb(254,255,254)" stroke-width="1" opacity="1" d="M 562.5 421 L 564.5 424 L 562.5 421 Z " /><path fill="rgb(254,255,254)" stroke="rgb(254,255,254)" stroke-width="1" opacity="1" d="M 566.5 425 L 567.5 427 L 566.5 425 Z " /><path fill="rgb(254,255,254)" stroke="rgb(254,255,254)" stroke-width="1" opacity="1" d="M 569.5 429 L 573.5 434 Q 571.3 434.8 572 432.5 L 569.5 429 Z " /><path fill="rgb(254,255,254)" stroke="rgb(254,255,254)" stroke-width="1" opacity="1" d="M 852.5 429 L 854 429.5 L 850.5 431 L 850.5 430 L 852.5 429 Z " /><path fill="rgb(254,255,254)" stroke="rgb(254,255,254)" stroke-width="1" opacity="1" d="M 630.5 430 L 632.5 433 L 630.5 430 Z " /><path fill="rgb(254,255,254)" stroke="rgb(254,255,254)" stroke-width="1" opacity="1" d="M 925.5 430 L 923.5 433 L 925.5 430 Z " /><path fill="rgb(254,255,254)" stroke="rgb(254,255,254)" stroke-width="1" opacity="1" d="M 844.5 433 L 843.5 435 L 840.5 436 L 840.5 435 L 844.5 433 Z " /><path fill="rgb(254,255,254)" stroke="rgb(254,255,254)" stroke-width="1" opacity="1" d="M 835.5 437 L 834.5 439 L 831.5 440 L 831.5 439 L 835.5 437 Z " /><path fill="rgb(254,255,254)" stroke="rgb(254,255,254)" stroke-width="1" opacity="1" d="M 578.5 439 L 582.5 444 Q 580.3 444.8 581 442.5 L 578.5 439 Z " /><path fill="rgb(254,255,254)" stroke="rgb(254,255,254)" stroke-width="1" opacity="1" d="M 646.5 446 L 648.5 449 L 646.5 446 Z " /><path fill="rgb(254,255,254)" stroke="rgb(254,255,254)" stroke-width="1" opacity="1" d="M 753.5 446 L 757 446.5 L 753.5 447 L 753.5 446 Z " /><path fill="rgb(254,255,254)" stroke="rgb(254,255,254)" stroke-width="1" opacity="1" d="M 909.5 446 L 907.5 449 L 909.5 446 Z " /><path fill="rgb(254,255,254)" stroke="rgb(254,255,254)" stroke-width="1" opacity="1" d="M 653.5 452 L 654.5 454 L 653.5 452 Z " /><path fill="rgb(254,255,254)" stroke="rgb(254,255,254)" stroke-width="1" opacity="1" d="M 658.5 456 L 659.5 458 L 658.5 456 Z " /><path fill="rgb(254,255,254)" stroke="rgb(254,255,254)" stroke-width="1" opacity="1" d="M 897.5 456 L 896.5 458 L 897.5 456 Z " /><path fill="rgb(254,255,254)" stroke="rgb(254,255,254)" stroke-width="1" opacity="1" d="M 662.5 459 L 663.5 461 L 662.5 459 Z " /><path fill="rgb(254,255,254)" stroke="rgb(254,255,254)" stroke-width="1" opacity="1" d="M 893.5 459 L 892.5 461 L 893.5 459 Z " /><path fill="rgb(254,255,254)" stroke="rgb(254,255,254)" stroke-width="1" opacity="1" d="M 600.5 464 L 601.5 466 L 600.5 464 Z " /><path fill="rgb(254,255,254)" stroke="rgb(254,255,254)" stroke-width="1" opacity="1" d="M 668.5 464 L 669 499.5 L 668 499.5 L 667 497.5 L 667 480.5 L 668 479.5 L 668.5 464 Z " /><path fill="rgb(254,255,254)" stroke="rgb(254,255,254)" stroke-width="1" opacity="1" d="M 604.5 468 L 607 471.5 L 606 471.5 L 604.5 468 Z " /><path fill="rgb(254,255,254)" stroke="rgb(254,255,254)" stroke-width="1" opacity="1" d="M 395.5 474 Q 397.8 473.3 397 475.5 L 403 482.5 L 399 479.5 L 395.5 474 Z " /><path fill="rgb(254,255,254)" stroke="rgb(254,255,254)" stroke-width="1" opacity="1" d="M 610.5 475 L 614 479.5 L 612 478.5 L 610.5 475 Z " /><path fill="rgb(254,255,254)" stroke="rgb(254,255,254)" stroke-width="1" opacity="1" d="M 616.5 482 L 618.5 485 L 616.5 482 Z " /><path fill="rgb(254,255,254)" stroke="rgb(254,255,254)" stroke-width="1" opacity="1" d="M 405.5 486 L 406.5 488 L 405.5 486 Z " /><path fill="rgb(254,255,254)" stroke="rgb(254,255,254)" stroke-width="1" opacity="1" d="M 622.5 489 L 623.5 491 L 622.5 489 Z " /><path fill="rgb(254,255,254)" stroke="rgb(254,255,254)" stroke-width="1" opacity="1" d="M 413.5 496 L 415.5 499 L 413.5 496 Z " /><path fill="rgb(254,255,254)" stroke="rgb(254,255,254)" stroke-width="1" opacity="1" d="M 631.5 499 L 632.5 501 L 631.5 499 Z " /><path fill="rgb(254,255,254)" stroke="rgb(254,255,254)" stroke-width="1" opacity="1" d="M 418.5 501 L 419.5 503 L 418.5 501 Z " /><path fill="rgb(254,255,254)" stroke="rgb(254,255,254)" stroke-width="1" opacity="1" d="M 211.5 503 L 212 801.5 L 211 801.5 L 211.5 503 Z " /><path fill="rgb(254,255,254)" stroke="rgb(254,255,254)" stroke-width="1" opacity="1" d="M 421.5 504 L 422.5 506 L 421.5 504 Z " /><path fill="rgb(254,255,254)" stroke="rgb(254,255,254)" stroke-width="1" opacity="1" d="M 424.5 507 L 429 512.5 L 427 511.5 L 424.5 507 Z " /><path fill="rgb(254,255,254)" stroke="rgb(254,255,254)" stroke-width="1" opacity="1" d="M 641.5 509 L 642.5 511 L 641.5 509 Z " /><path fill="rgb(254,255,254)" stroke="rgb(254,255,254)" stroke-width="1" opacity="1" d="M 431.5 515 L 432.5 517 L 431.5 515 Z " /><path fill="rgb(254,255,254)" stroke="rgb(254,255,254)" stroke-width="1" opacity="1" d="M 434.5 518 L 435.5 520 L 434.5 518 Z " /><path fill="rgb(254,255,254)" stroke="rgb(254,255,254)" stroke-width="1" opacity="1" d="M 650.5 519 L 652.5 522 Q 650.3 522.8 651 520.5 L 650.5 519 Z " /><path fill="rgb(254,255,254)" stroke="rgb(254,255,254)" stroke-width="1" opacity="1" d="M 440.5 525 L 441.5 527 L 440.5 525 Z " /><path fill="rgb(254,255,254)" stroke="rgb(254,255,254)" stroke-width="1" opacity="1" d="M 658.5 528 Q 659.5 532 665.5 531 L 667 530.5 L 666.5 532 L 660 532 L 658.5 528 Z " /><path fill="rgb(254,255,254)" stroke="rgb(254,255,254)" stroke-width="1" opacity="1" d="M 444.5 529 L 448 533.5 L 445 531.5 L 444.5 529 Z " /><path fill="rgb(254,255,254)" stroke="rgb(254,255,254)" stroke-width="1" opacity="1" d="M 450.5 536 L 451.5 538 L 450.5 536 Z " /><path fill="rgb(254,255,254)" stroke="rgb(254,255,254)" stroke-width="1" opacity="1" d="M 456.5 543 L 457.5 545 L 456.5 543 Z " /><path fill="rgb(254,255,254)" stroke="rgb(254,255,254)" stroke-width="1" opacity="1" d="M 459.5 546 L 460.5 548 L 459.5 546 Z " /><path fill="rgb(254,255,254)" stroke="rgb(254,255,254)" stroke-width="1" opacity="1" d="M 472.5 561 L 473.5 563 L 472.5 561 Z " /><path fill="rgb(254,255,254)" stroke="rgb(254,255,254)" stroke-width="1" opacity="1" d="M 475.5 564 L 476.5 566 L 475.5 564 Z " /><path fill="rgb(254,255,254)" stroke="rgb(254,255,254)" stroke-width="1" opacity="1" d="M 478.5 567 L 479.5 569 L 478.5 567 Z " /><path fill="rgb(254,255,254)" stroke="rgb(254,255,254)" stroke-width="1" opacity="1" d="M 485.5 575 L 486.5 577 L 485.5 575 Z " /><path fill="rgb(254,255,254)" stroke="rgb(254,255,254)" stroke-width="1" opacity="1" d="M 488.5 578 L 490 580.5 L 489 580.5 L 488.5 578 Z " /><path fill="rgb(254,255,254)" stroke="rgb(254,255,254)" stroke-width="1" opacity="1" d="M 491.5 582 L 492.5 584 L 491.5 582 Z " /><path fill="rgb(254,255,254)" stroke="rgb(254,255,254)" stroke-width="1" opacity="1" d="M 494.5 585 L 495.5 587 L 494.5 585 Z " /><path fill="rgb(254,255,254)" stroke="rgb(254,255,254)" stroke-width="1" opacity="1" d="M 504.5 596 L 508 600.5 L 505 598.5 L 504.5 596 Z " /><path fill="rgb(254,255,254)" stroke="rgb(254,255,254)" stroke-width="1" opacity="1" d="M 510.5 603 L 511.5 605 L 510.5 603 Z " /><path fill="rgb(254,255,254)" stroke="rgb(254,255,254)" stroke-width="1" opacity="1" d="M 513.5 606 L 514.5 608 L 513.5 606 Z " /><path fill="rgb(254,255,254)" stroke="rgb(254,255,254)" stroke-width="1" opacity="1" d="M 522.5 617 L 523.5 619 L 522.5 617 Z " /><path fill="rgb(254,255,254)" stroke="rgb(254,255,254)" stroke-width="1" opacity="1" d="M 525.5 620 L 526.5 622 L 525.5 620 Z " /><path fill="rgb(254,255,254)" stroke="rgb(254,255,254)" stroke-width="1" opacity="1" d="M 529.5 624 L 530.5 626 L 529.5 624 Z " /><path fill="rgb(254,255,254)" stroke="rgb(254,255,254)" stroke-width="1" opacity="1" d="M 535.5 631 L 536.5 633 L 535.5 631 Z " /><path fill="rgb(254,255,254)" stroke="rgb(254,255,254)" stroke-width="1" opacity="1" d="M 539.5 635 L 543 639.5 L 539 636.5 L 539.5 635 Z " /><path fill="rgb(254,255,254)" stroke="rgb(254,255,254)" stroke-width="1" opacity="1" d="M 548.5 645 L 549.5 647 L 548.5 645 Z " /><path fill="rgb(254,255,254)" stroke="rgb(254,255,254)" stroke-width="1" opacity="1" d="M 554.5 652 L 555.5 654 L 554.5 652 Z " /><path fill="rgb(254,255,254)" stroke="rgb(254,255,254)" stroke-width="1" opacity="1" d="M 559.5 658 L 561.5 661 L 559.5 658 Z " /><path fill="rgb(254,255,254)" stroke="rgb(254,255,254)" stroke-width="1" opacity="1" d="M 574.5 674 L 577 677.5 L 574 675.5 L 574.5 674 Z " /><path fill="rgb(254,255,254)" stroke="rgb(254,255,254)" stroke-width="1" opacity="1" d="M 579.5 681 Q 581.8 680.3 581 682.5 L 583.5 686 L 579.5 681 Z " /><path fill="rgb(254,255,254)" stroke="rgb(254,255,254)" stroke-width="1" opacity="1" d="M 591.5 694 L 592.5 696 L 591.5 694 Z " /><path fill="rgb(254,255,254)" stroke="rgb(254,255,254)" stroke-width="1" opacity="1" d="M 601.5 705 Q 603.8 704.3 603 706.5 L 601.5 705 Z " /><path fill="rgb(254,255,254)" stroke="rgb(254,255,254)" stroke-width="1" opacity="1" d="M 604.5 709 Q 606.8 708.3 606 710.5 L 609.5 715 L 604.5 709 Z " /><path fill="rgb(254,255,254)" stroke="rgb(254,255,254)" stroke-width="1" opacity="1" d="M 613.5 719 L 617.5 724 L 613.5 719 Z " /><path fill="rgb(254,255,254)" stroke="rgb(254,255,254)" stroke-width="1" opacity="1" d="M 618.5 725 L 619.5 727 L 618.5 725 Z " /><path fill="rgb(254,255,254)" stroke="rgb(254,255,254)" stroke-width="1" opacity="1" d="M 621.5 728 L 624.5 732 L 621.5 728 Z " /><path fill="rgb(254,255,254)" stroke="rgb(254,255,254)" stroke-width="1" opacity="1" d="M 626.5 734 Q 628.8 733.3 628 735.5 L 626.5 734 Z " /><path fill="rgb(254,255,254)" stroke="rgb(254,255,254)" stroke-width="1" opacity="1" d="M 629.5 737 Q 631.8 736.3 631 738.5 L 631.5 740 L 629.5 737 Z " /><path fill="rgb(254,255,254)" stroke="rgb(254,255,254)" stroke-width="1" opacity="1" d="M 634.5 743 L 635.5 745 L 634.5 743 Z " /><path fill="rgb(254,255,254)" stroke="rgb(254,255,254)" stroke-width="1" opacity="1" d="M 637.5 746 L 638.5 748 L 637.5 746 Z " /><path fill="rgb(254,255,254)" stroke="rgb(254,255,254)" stroke-width="1" opacity="1" d="M 640.5 749 L 643.5 753 L 640.5 749 Z " /><path fill="rgb(254,255,254)" stroke="rgb(254,255,254)" stroke-width="1" opacity="1" d="M 646.5 756 L 655.5 766 L 646.5 756 Z " /><path fill="rgb(254,255,254)" stroke="rgb(254,255,254)" stroke-width="1" opacity="1" d="M 659.5 770 L 664 775.5 L 661 773.5 L 659.5 770 Z " /><path fill="rgb(254,255,254)" stroke="rgb(254,255,254)" stroke-width="1" opacity="1" d="M 665.5 777 L 669.5 782 L 665.5 777 Z " /><path fill="rgb(254,255,254)" stroke="rgb(254,255,254)" stroke-width="1" opacity="1" d="M 672.5 785 L 676 789.5 L 673 787.5 L 672.5 785 Z " /><path fill="rgb(254,255,254)" stroke="rgb(254,255,254)" stroke-width="1" opacity="1" d="M 678.5 792 L 680 794.5 L 679 794.5 L 678.5 792 Z " /><path fill="rgb(254,255,254)" stroke="rgb(254,255,254)" stroke-width="1" opacity="1" d="M 390.5 798 L 391 800.5 L 390 800.5 L 390.5 798 Z " /><path fill="rgb(254,255,254)" stroke="rgb(254,255,254)" stroke-width="1" opacity="1" d="M 388.5 806 L 388 807.5 L 383.5 813 L 387 808.5 L 388.5 806 Z " /><path fill="rgb(254,255,254)" stroke="rgb(254,255,254)" stroke-width="1" opacity="1" d="M 845 806 L 847 806.5 L 845 807.5 L 845 806 Z " /><path fill="rgb(254,255,254)" stroke="rgb(254,255,254)" stroke-width="1" opacity="1" d="M 694.5 809 L 695.5 811 L 694.5 809 Z " /><path fill="rgb(254,255,254)" stroke="rgb(254,255,254)" stroke-width="1" opacity="1" d="M 844.5 809 L 841.5 813 L 844.5 809 Z " /><path fill="rgb(254,255,254)" stroke="rgb(254,255,254)" stroke-width="1" opacity="1" d="M 381.5 813 L 380.5 815 L 379 814.5 L 381.5 813 Z " /><path fill="rgb(254,255,254)" stroke="rgb(254,255,254)" stroke-width="1" opacity="1" d="M 222.5 814 Q 225.8 812.9 225 815.5 L 223.5 815 L 222.5 814 Z " /><path fill="rgb(254,255,254)" stroke="rgb(254,255,254)" stroke-width="1" opacity="1" d="M 701.5 814 Q 705.3 813.3 706 815.5 L 704.5 815 Q 700.5 815.8 701.5 814 Z " /><path fill="rgb(254,255,254)" stroke="rgb(254,255,254)" stroke-width="1" opacity="1" d="M 836 814 L 838 814.5 L 836 815.5 L 836 814 Z " /><path fill="rgb(255,255,255)" stroke="rgb(255,255,255)" stroke-width="1" opacity="1" d="M 760.5 100 L 795.5 100 L 796.5 101 L 804.5 101 L 832.5 107 L 847.5 112 Q 892.8 130.2 923 163.5 Q 948.4 190.6 963 228.5 L 968 243.5 L 974 272.5 L 974 280.5 L 975 281.5 L 975 315.5 L 974 316.5 L 973 331.5 L 968 353.5 L 958 380.5 Q 940.2 419.2 910.5 446 Q 884.4 470.6 848 484 L 848 800.5 L 847 806 Q 844 804.8 845 808.5 Q 842.4 813.8 836 814 L 835.5 816 L 706.5 816 L 704.5 814 Q 698.3 814.6 696 812 L 694.5 809 L 691.5 807 L 689 803 L 686 801.5 Q 686.8 799.3 684.5 800 L 682 796 Q 679 797.3 680 793.5 L 676 790.5 L 672.5 785 L 670 783.5 L 670 781.5 L 665.5 777 Q 663.3 777.8 664 775.5 L 659.5 770 Q 657.3 770.8 658 768.5 L 646.5 756 Q 644.3 756.8 645 754.5 L 640.5 749 Q 638.3 749.8 639 747.5 L 636 746 L 634.5 743 L 632 741.5 L 631 737 L 628 735.5 Q 628.8 733.3 626.5 734 L 621.5 728 Q 619.3 728.8 620 726.5 L 617 724.5 L 618 723.5 L 612 717.5 L 610 714.5 L 606 709 L 603 707.5 Q 604.1 704.2 601.5 705 L 600 702 L 596 699.5 Q 596.8 697.3 594.5 698 L 590 691 L 587 689.5 Q 587.8 687.3 585.5 688 L 581 681 L 577 678.5 L 575 674 L 571 671.5 Q 571.8 669.3 569.5 670 L 568 667 Q 565.3 668.1 566 665.5 L 565 663 L 562 661.5 L 559 656 L 556 654.5 L 554.5 652 Q 552.3 652.8 553 650.5 L 548.5 645 L 546 643.5 Q 546.8 641.3 544.5 642 L 540 635 L 537 633.5 L 535.5 631 Q 533.3 631.8 534 629.5 L 529.5 624 L 527 622.5 L 525.5 620 Q 523.3 620.8 524 618.5 L 521 614 L 518 612.5 L 513.5 606 Q 511.3 606.8 512 604.5 L 508 601.5 L 504.5 596 L 502 594.5 Q 502.8 592.3 500.5 593 L 494.5 585 Q 492.3 585.8 493 583.5 L 490 582 L 488.5 578 Q 486.3 578.8 487 576.5 L 483 573.5 Q 483.8 571.3 481.5 572 L 478.5 567 Q 476.3 567.8 477 565.5 L 474 564 L 472.5 561 L 470 559.5 L 467 554 L 464 552.5 L 459.5 546 Q 457.3 546.8 458 544.5 L 455 543 L 454 539 Q 451.3 540.1 452 537.5 L 448 534.5 L 444.5 529 L 442 527.5 L 440.5 525 Q 438.3 525.8 439 523.5 L 434.5 518 Q 432.3 518.8 433 516.5 L 429 513.5 L 424.5 507 Q 422.3 507.8 423 505.5 L 420 504 L 418.5 501 L 416 499.5 L 410 491 L 408 490.5 L 408.5 489 Q 406.3 489.8 407 487.5 L 404 486 L 397 474 L 393.5 473 L 391 474 L 391 797.5 L 390 798.5 L 390 806 L 387 807.5 L 382.5 813 L 379 814 L 378.5 816 L 225 816 Q 226.3 812.7 221.5 814 L 217 812 Q 218.1 809.3 215.5 810 L 211 802.5 L 212 801.5 L 212 503.5 L 211 502.5 L 211 485.5 L 212 484.5 L 212 474.5 L 211 473.5 L 211 462.5 Q 213.5 461 212 455.5 L 211 454.5 L 211 420.5 L 212 419.5 L 212 409.5 Q 209.3 407.8 211 401.5 L 212 400.5 L 212 362.5 L 211 361.5 L 211 307.5 L 211 305.5 L 212 302.5 L 211 300.5 L 212 299.5 L 212 288.5 L 211 287.5 L 211 219.5 L 212 217.5 L 211 213.5 L 212 211.5 Q 209.5 210 213 208.5 L 213 206 Q 215.7 207.1 215 204.5 L 219 202 Q 217.8 199 221.5 200 L 222.5 199 L 306.5 199 L 312.5 197 L 357 197 Q 355.6 201 362.5 199 L 371 201 Q 369.9 203.7 372.5 203 L 374 206 L 378 208.5 Q 377.3 210.8 379.5 210 L 384 217 L 387 218.5 L 388 222 Q 390.7 220.9 390 223.5 L 393 225 L 397.5 232 Q 399.8 231.3 399 233.5 L 401 237 L 404 238.5 Q 402.9 241.8 405.5 241 L 413.5 250 Q 415.8 249.3 415 251.5 L 423 262 Q 425.7 260.9 425 263.5 L 426 266 L 429 267.5 L 432 273 L 435 274.5 L 438 280 L 441 281.5 L 442.5 284 L 444 284 Q 442.5 287.8 445.5 287 L 448.5 291 L 451 292.5 Q 450.3 294.8 452.5 294 L 457 301 L 460 302.5 L 461.5 305 Q 463.8 304.3 463 306.5 L 467.5 312 L 470 313.5 L 473.5 319 L 476 320.5 L 480.5 327 Q 482.8 326.3 482 328.5 L 484 332 L 488 334.5 L 489.5 337 Q 491.8 336.3 491 338.5 L 496 346 L 499 347.5 L 502 353 L 506 355.5 Q 505.3 357.8 507.5 357 L 518 371 L 521 372.5 L 524 378 Q 527 376.8 526 380.5 L 530 383.5 Q 529.3 385.8 531.5 385 L 537.5 393 Q 539.8 392.3 539 394.5 L 542 396 L 543 400 Q 545.7 398.9 545 401.5 L 549 404.5 L 553.5 411 Q 555.8 410.3 555 412.5 L 559.5 418 Q 561.8 417.3 561 419.5 L 572 434 L 575 435.5 Q 574.3 437.8 576.5 437 L 581 444 L 585 446.5 Q 584.3 449.1 587 448 L 587 451 L 588.5 451 L 591 455 L 594 456.5 Q 592.9 459.8 595.5 459 L 597 462 L 600 463.5 L 601.5 466 L 604 467.5 L 606 472 L 610 474.5 L 613.5 480 L 616 481.5 L 619 487 L 622 488.5 L 623.5 491 Q 625.8 490.3 625 492.5 L 628 497 L 631 498.5 L 632.5 501 L 635 502.5 Q 634.3 504.8 636.5 504 L 638 507 L 641 508.5 L 645 515 L 648 516.5 L 650 519.5 L 651 522 L 654 523.5 Q 653.3 525.8 655.5 525 L 660 532 L 666.5 532 L 667 531.5 L 667 498.5 L 668 498.5 L 668.5 500 L 669 464.5 L 668 464.5 L 667.5 480 L 667 462 Q 647.9 450.5 633 433.5 Q 607.6 406.4 593 368.5 L 588 353.5 L 582 324.5 L 582 316.5 L 581 315.5 L 581 281.5 L 582 280.5 L 583 265.5 L 588 243.5 L 598 216.5 Q 615.8 177.8 645.5 151 Q 670.2 128.2 703.5 114 L 735.5 104 L 751.5 101 L 759.5 101 L 760.5 100 Z M 766 149 L 765 150 Q 756 148 753 151 L 751 151 L 742 153 L 740 153 L 737 154 L 735 154 L 732 155 Q 730 158 729 156 L 721 160 L 719 160 L 702 169 L 689 179 Q 685 178 686 181 L 682 185 L 681 184 L 679 187 L 667 198 L 667 200 L 657 211 L 641 241 L 633 267 L 632 280 L 630 287 L 630 313 L 632 320 L 633 333 L 635 336 L 639 352 L 654 382 L 668 400 L 692 421 L 714 434 L 716 434 L 721 437 L 723 437 L 728 440 L 732 442 L 733 441 L 735 442 L 737 442 L 739 443 L 741 443 L 743 444 L 745 444 L 749 445 L 751 445 Q 754 449 764 447 L 767 448 L 791 448 L 792 447 L 796 448 L 797 447 L 805 447 L 807 447 L 809 446 L 811 446 L 813 445 L 815 445 L 817 444 L 819 444 L 833 440 L 853 430 Q 855 431 854 428 L 857 427 Q 860 428 859 425 L 863 423 Q 866 424 865 422 L 874 414 L 876 414 L 876 413 L 894 394 L 909 372 L 919 350 L 924 331 L 925 317 L 926 316 L 926 280 L 921 255 L 912 232 L 894 204 L 888 198 L 889 197 L 887 195 L 881 189 L 870 180 L 867 176 L 865 176 L 844 162 L 841 162 L 831 157 L 828 157 L 826 155 L 818 154 L 816 152 Q 809 153 807 150 L 796 150 L 795 149 L 766 149 Z " /><path fill="rgb(255,255,255)" stroke="rgb(255,255,255)" stroke-width="1" opacity="1" d="M 766.5 212 L 799.5 212 L 801 213.5 L 802 216.5 L 801 217.5 L 801 379 L 776.5 380 L 775.5 379 L 767.5 379 L 766 377.5 L 766 254.5 L 764.5 253 L 761.5 253 Q 751.9 263.4 738.5 270 Q 727.5 259.6 721 246 L 726.5 244 L 736.5 237 L 766.5 212 Z " /><path fill="rgb(18,28,91)" stroke="rgb(18,28,91)" stroke-width="1" opacity="1" d="M 0 0 L 1024 0 L 1024 1024 L 0 1024 L 0 0 Z M 766 99 L 765 100 L 755 100 L 754 101 L 737 103 L 707 112 Q 671 126 646 150 Q 617 176 599 213 L 587 245 L 582 268 L 581 285 L 580 286 L 580 312 L 581 313 L 582 330 L 587 353 L 593 371 Q 608 407 632 434 Q 647 451 666 462 L 666 528 L 665 529 Q 666 532 662 530 L 576 436 L 380 209 L 371 200 L 357 196 L 223 197 L 219 199 Q 212 203 209 212 L 209 561 L 210 562 L 210 593 L 209 594 L 209 605 L 210 606 L 210 804 L 211 807 Q 216 814 225 817 L 379 817 L 384 814 Q 390 810 392 803 L 392 503 L 393 502 L 393 483 L 392 482 Q 389 474 396 476 L 409 494 L 444 531 L 535 634 L 557 657 L 567 670 L 598 703 L 630 741 L 655 767 L 682 800 L 698 814 L 713 818 L 801 818 L 802 817 L 827 817 L 828 818 Q 837 818 842 814 Q 847 810 849 804 L 849 486 L 885 467 L 911 447 Q 939 421 957 385 L 970 349 L 975 322 L 975 312 L 976 311 L 976 287 L 975 286 L 974 269 L 970 249 L 963 227 Q 949 190 924 164 Q 894 130 850 112 L 832 106 L 809 101 L 792 100 L 791 99 L 766 99 Z " /></svg>